<svg xmlns="http://www.w3.org/2000/svg" width="32" height="32" version="1" id="cloth"><path fill-rule="evenodd" d="M16 0C7.176 0 0 7.176 0 16s7.176 16 16 16 16-7.123 16-16c0-8.824-7.176-16-16-16zm-5.188 7.906h2.907l.187.125h.125v.125h.063v.219c0 .58.12 1.078.25 1.594.258.45.787.896 1.625 1.219.58-.258 1.084-.58 1.406-1.032.322-.45.531-1.01.531-1.719v-.281l.063-.062.125-.125h3.156c.129 0 .186.06.25.125l4.469 6.469a.375.375 0 0 1-.063.437l-2.593 1.938c-.13.128-.31.066-.438-.063L21.5 15.062v8.72c0 .128-.12.312-.313.312H10.813c-.193 0-.312-.12-.312-.313V15l-1.375 1.813c-.129.128-.309.19-.438.062l-2.593-1.938a.375.375 0 0 1-.063-.437l4.532-6.469a.46.46 0 0 1 .25-.125z"></path></svg>